<svg width="157" height="31" viewBox="0 0 157 31" fill="none" xmlns="http://www.w3.org/2000/svg">
<path d="M29.1866 28.9831C25.9599 28.9831 22.3066 25.2498 18.2266 17.7831C17.3199 16.1831 16.1199 15.0764 14.6266 14.4631C14.1999 17.0498 13.4932 19.1964 12.5066 20.9031C11.5466 22.6098 10.2932 23.9431 8.74656 24.9031C7.73323 25.5164 6.70656 25.8231 5.66656 25.8231C3.69323 25.8231 2.18656 25.0364 1.14656 23.4631C0.479896 22.5564 0.146562 21.4364 0.146562 20.1031C0.146562 17.8631 1.0799 16.1698 2.94656 15.0231C3.4799 14.7031 4.0399 14.5431 4.62656 14.5431C5.37323 14.5431 6.0399 14.7564 6.62656 15.1831C7.21323 15.6631 7.57323 16.2498 7.70656 16.9431C7.73323 16.9431 7.74656 16.9698 7.74656 17.0231C7.74656 17.0764 7.7199 17.1031 7.66656 17.1031C7.50656 17.1031 7.38656 16.9964 7.30656 16.7831C7.22656 16.2498 6.93323 15.8098 6.42656 15.4631C5.9999 15.1431 5.46656 14.9831 4.82656 14.9831C4.2399 14.9831 3.70656 15.1431 3.22656 15.4631C1.65323 16.4231 0.866563 17.7698 0.866563 19.5031C0.866563 20.8098 1.33323 22.0098 2.26656 23.1031C3.33323 24.2498 4.66656 24.8231 6.26656 24.8231C7.09323 24.8231 7.82656 24.6231 8.46656 24.2231C11.4266 22.4364 13.0666 19.1031 13.3866 14.2231C12.6399 14.1431 11.9199 14.2498 11.2266 14.5431H11.1066C10.9199 14.5431 10.8266 14.4498 10.8266 14.2631C10.8266 14.1298 10.8932 14.0364 11.0266 13.9831C11.7999 13.5831 12.5999 13.3164 13.4266 13.1831L13.4666 12.6231V12.1431C13.4666 11.6098 13.4399 10.9698 13.3866 10.2231C13.3599 9.47644 13.3199 8.63644 13.2666 7.70311C13.2132 6.76978 13.1732 5.98311 13.1466 5.34311C13.1199 4.70311 13.1066 4.20978 13.1066 3.86311C13.1066 3.51644 13.1066 3.20978 13.1066 2.94311C13.1332 2.64978 13.1599 2.38311 13.1866 2.14311C13.2399 1.84978 13.5466 1.70311 14.1066 1.70311C14.4532 1.70311 14.7066 1.74311 14.8666 1.82311C14.9999 1.92978 15.0399 2.04978 14.9866 2.18311V4.02311C14.9866 4.20978 14.9866 4.42311 14.9866 4.66311C15.0132 4.87644 15.0266 5.11644 15.0266 5.38311V6.86311C15.0266 7.04978 15.0266 7.24978 15.0266 7.46311C15.0532 7.64978 15.0666 7.83644 15.0666 8.02311C15.0666 8.76978 15.0399 9.48978 14.9866 10.1831C14.9599 10.8764 14.9199 11.5964 14.8666 12.3431C15.3999 11.8898 15.9199 11.3431 16.4266 10.7031C16.9332 10.0631 17.4799 9.28978 18.0666 8.38311C18.7332 7.36978 19.2932 6.52978 19.7466 5.86311C20.1999 5.16978 20.5732 4.67644 20.8666 4.38311C22.0132 3.07644 23.2666 2.42311 24.6266 2.42311C25.7999 2.42311 26.7599 2.76978 27.5066 3.46311C28.1999 4.15644 28.5466 5.02311 28.5466 6.06311C28.5466 7.12978 28.1599 8.08978 27.3866 8.94311C26.5332 9.82311 25.3999 10.2231 23.9866 10.1431C23.7732 10.1431 23.6666 10.0764 23.6666 9.94311L23.7066 9.86311C23.7066 9.83644 23.7732 9.82311 23.9066 9.82311C24.9999 9.87644 25.8666 9.54311 26.5066 8.82311C27.0932 8.15644 27.3866 7.36978 27.3866 6.46311C27.3866 5.60978 27.1466 4.92978 26.6666 4.42311C26.1866 3.86311 25.4932 3.58311 24.5866 3.58311C24.0532 3.58311 23.4932 3.74311 22.9066 4.06311C22.3199 4.38311 21.7599 4.88978 21.2266 5.58311L20.3066 6.78311L18.3866 9.42311C17.2132 11.0764 16.0666 12.3031 14.9466 13.1031C16.0666 13.3698 17.0266 13.9031 17.8266 14.7031C18.1732 15.0498 18.5466 15.4898 18.9466 16.0231C19.3732 16.5564 19.7999 17.1964 20.2266 17.9431L21.3466 19.8231C21.5332 20.1431 21.7199 20.4631 21.9066 20.7831C22.1199 21.1031 22.3199 21.4098 22.5066 21.7031C23.0932 22.6898 23.6532 23.5431 24.1866 24.2631C24.7199 25.0098 25.2266 25.6498 25.7066 26.1831C27.0132 27.6498 28.1732 28.3831 29.1866 28.3831C29.7732 28.3831 30.3732 28.1564 30.9866 27.7031C31.6266 27.2231 31.9866 26.6898 32.0666 26.1031C32.1199 25.9431 32.2266 25.8631 32.3866 25.8631C32.5732 25.8631 32.6666 25.9564 32.6666 26.1431V26.2231C32.6666 26.5698 32.5466 26.9031 32.3066 27.2231C32.0666 27.5698 31.7466 27.8898 31.3466 28.1831C30.5732 28.7164 29.8532 28.9831 29.1866 28.9831ZM29.4741 30.3031C28.7807 30.3031 28.1141 30.1698 27.4741 29.9031C26.8607 29.6631 26.3407 29.2898 25.9141 28.7831C25.4074 28.2764 25.1541 27.5164 25.1541 26.5031C25.1541 25.6231 25.3674 24.8498 25.7941 24.1831C26.2207 23.5164 26.9274 23.1831 27.9141 23.1831C28.4741 23.1831 28.9674 23.3298 29.3941 23.6231C29.8474 23.9431 30.0741 24.4231 30.0741 25.0631C30.0741 25.6764 29.8741 26.1164 29.4741 26.3831C29.1007 26.6764 28.7274 26.8231 28.3541 26.8231C28.1407 26.8231 28.0341 26.7564 28.0341 26.6231C28.0341 26.4631 28.1407 26.3831 28.3541 26.3831C28.6207 26.3831 28.8874 26.2631 29.1541 26.0231C29.4207 25.7831 29.5541 25.4631 29.5541 25.0631C29.5541 24.5831 29.3941 24.2364 29.0741 24.0231C28.7541 23.8364 28.3807 23.7431 27.9541 23.7431C27.2874 23.7431 26.8074 24.0231 26.5141 24.5831C26.2474 25.1431 26.1141 25.7564 26.1141 26.4231C26.1141 26.8231 26.1941 27.2364 26.3541 27.6631C26.5407 28.0898 26.8074 28.4364 27.1541 28.7031C27.8207 29.2364 28.6341 29.5031 29.5941 29.5031C30.7407 29.5031 31.6607 29.1964 32.3541 28.5831C33.0741 27.9698 33.5941 27.1564 33.9141 26.1431C34.2341 25.1564 34.3941 24.0898 34.3941 22.9431C34.3941 22.6231 34.3407 22.1431 34.2341 21.5031C34.1274 20.8631 33.9807 20.2498 33.7941 19.6631C33.6074 19.0498 33.3807 18.6631 33.1141 18.5031C32.7407 19.4098 32.2341 20.1964 31.5941 20.8631C30.9541 21.5298 30.1007 21.8631 29.0341 21.8631C27.8607 21.8631 27.0474 21.5431 26.5941 20.9031C26.1407 20.2631 25.9141 19.5164 25.9141 18.6631C25.9141 17.9164 26.1007 17.2364 26.4741 16.6231C26.8474 15.9831 27.2741 15.3831 27.7541 14.8231C28.2607 14.2364 28.7007 13.6764 29.0741 13.1431C29.4474 12.5831 29.6341 12.0231 29.6341 11.4631C29.6341 10.8764 29.4874 10.3698 29.1941 9.94311C28.9274 9.51644 28.4874 9.30311 27.8741 9.30311C27.3407 9.30311 26.9274 9.46311 26.6341 9.78311C26.3141 10.1298 26.1541 10.5164 26.1541 10.9431C26.1541 11.1031 26.1807 11.2764 26.2341 11.4631C26.2874 11.6231 26.3541 11.7964 26.4341 11.9831L26.5541 12.2231L26.6341 12.3431C26.7141 12.4231 26.7541 12.4898 26.7541 12.5431C26.7541 12.6498 26.7141 12.7431 26.6341 12.8231C26.5541 12.8764 26.4874 12.8898 26.4341 12.8631C26.1674 12.7298 25.9274 12.4631 25.7141 12.0631C25.5274 11.6364 25.4341 11.1831 25.4341 10.7031C25.4341 10.4098 25.4874 10.1298 25.5941 9.86311C25.7007 9.56978 25.8741 9.30311 26.1141 9.06311C26.6474 8.60978 27.2874 8.38311 28.0341 8.38311C28.8341 8.38311 29.4474 8.67644 29.8741 9.26311C30.3007 9.84978 30.5141 10.6098 30.5141 11.5431C30.5141 12.2364 30.3541 12.9031 30.0341 13.5431C29.7141 14.1564 29.3407 14.7564 28.9141 15.3431C28.5141 15.9298 28.1541 16.5431 27.8341 17.1831C27.5141 17.7964 27.3541 18.4498 27.3541 19.1431C27.3541 19.6231 27.4607 20.0898 27.6741 20.5431C27.8874 20.9698 28.3007 21.1831 28.9141 21.1831C29.6874 21.1831 30.3274 20.9831 30.8341 20.5831C31.3407 20.1564 31.7274 19.6231 31.9941 18.9831C32.2874 18.3164 32.5141 17.6098 32.6741 16.8631C32.8341 16.0898 32.9541 15.3698 33.0341 14.7031C33.0874 14.3031 33.1407 13.9698 33.1941 13.7031C33.2741 13.4098 33.3674 13.1698 33.4741 12.9831C33.6607 12.6364 33.9141 12.4631 34.2341 12.4631C34.7674 12.4631 35.0341 12.8231 35.0341 13.5431C35.0341 14.1831 34.8607 14.8898 34.5141 15.6631C34.1674 16.4098 33.8474 17.0764 33.5541 17.6631C34.1141 18.7298 34.6074 19.7564 35.0341 20.7431C35.4874 21.7031 35.7141 22.8098 35.7141 24.0631V24.5831C35.7141 25.6498 35.4207 26.6098 34.8341 27.4631C34.2474 28.3431 33.4741 29.0364 32.5141 29.5431C31.5807 30.0498 30.5674 30.3031 29.4741 30.3031ZM43.4478 23.0231C41.7411 23.0231 40.3545 22.4364 39.2878 21.2631C38.2211 20.0898 37.6878 18.6098 37.6878 16.8231C37.6878 15.3298 38.1945 14.1164 39.2078 13.1831C40.2211 12.2231 41.4745 11.7431 42.9678 11.7431C44.0611 11.7431 45.0345 12.0364 45.8878 12.6231C46.7411 13.2098 47.1678 14.0764 47.1678 15.2231C47.1678 15.8898 46.9411 16.4898 46.4878 17.0231C46.0611 17.5564 45.3145 17.8231 44.2478 17.8231C43.3411 17.8231 42.6611 17.5698 42.2078 17.0631C41.7811 16.5298 41.5678 15.9831 41.5678 15.4231C41.5678 14.9698 41.7011 14.5698 41.9678 14.2231C42.2611 13.8764 42.6745 13.7031 43.2078 13.7031C43.3145 13.7031 43.4211 13.7164 43.5278 13.7431C43.6345 13.7431 43.7411 13.7564 43.8478 13.7831C44.0611 13.8631 44.1678 13.9831 44.1678 14.1431C44.1678 14.3298 44.0345 14.3831 43.7678 14.3031C43.3678 14.1964 43.0611 14.2764 42.8478 14.5431C42.6345 14.7831 42.5278 15.0898 42.5278 15.4631C42.5278 15.8898 42.6745 16.3164 42.9678 16.7431C43.2878 17.1698 43.7411 17.3831 44.3278 17.3831C45.0211 17.3831 45.5411 17.1831 45.8878 16.7831C46.2611 16.3564 46.4478 15.8631 46.4478 15.3031C46.4478 14.6098 46.1545 13.9298 45.5678 13.2631C45.0078 12.5964 44.1811 12.2631 43.0878 12.2631C41.8345 12.2631 40.9011 12.7164 40.2878 13.6231C39.6745 14.5298 39.3678 15.5964 39.3678 16.8231C39.3678 17.8098 39.5145 18.7164 39.8078 19.5431C40.1278 20.3431 40.5811 20.9964 41.1678 21.5031C41.7545 22.0098 42.4345 22.2631 43.2078 22.2631C44.0611 22.2631 44.7411 22.0631 45.2478 21.6631C45.7811 21.2364 46.0478 20.7431 46.0478 20.1831C46.0478 19.9164 46.1678 19.7831 46.4078 19.7831C46.6211 19.7831 46.7278 19.9298 46.7278 20.2231C46.7278 21.1564 46.3811 21.8498 45.6878 22.3031C45.0211 22.7564 44.2745 22.9964 43.4478 23.0231ZM51.3694 23.7031C50.2227 23.7031 49.4494 22.9831 49.0494 21.5431C48.996 21.2764 48.9427 21.0231 48.8894 20.7831C48.8627 20.5164 48.8494 20.2498 48.8494 19.9831C48.8494 18.9164 49.076 17.8898 49.5294 16.9031C49.9827 15.8898 50.6227 15.0631 51.4494 14.4231C52.276 13.7564 53.2227 13.4231 54.2894 13.4231H54.6094C54.6627 13.4498 54.756 13.4631 54.8894 13.4631C56.0627 13.6764 56.6494 14.3298 56.6494 15.4231C56.6494 15.6364 56.556 15.7431 56.3694 15.7431C56.156 15.7431 56.0494 15.6364 56.0494 15.4231C55.996 15.1298 55.8494 14.9298 55.6094 14.8231C55.396 14.7164 55.1027 14.6631 54.7294 14.6631C54.5694 14.6631 54.4627 14.6764 54.4094 14.7031C53.5027 14.8364 52.7427 15.2364 52.1294 15.9031C51.516 16.5698 51.0627 17.3698 50.7694 18.3031C50.476 19.2098 50.3294 20.1031 50.3294 20.9831C50.3294 21.4364 50.436 21.9031 50.6494 22.3831C50.8627 22.8631 51.2494 23.1031 51.8094 23.1031C52.1827 23.1031 52.5427 22.9564 52.8894 22.6631C53.236 22.3431 53.5294 21.9564 53.7694 21.5031C54.0627 20.9431 54.2627 20.3298 54.3694 19.6631C54.476 18.9964 54.5294 18.1964 54.5294 17.2631C54.5294 16.9164 54.7427 16.7431 55.1694 16.7431C55.4094 16.7431 55.636 16.8098 55.8494 16.9431C56.036 17.0764 56.1427 17.2364 56.1694 17.4231C56.1694 17.5564 56.1694 17.7031 56.1694 17.8631C56.1694 17.9964 56.156 18.1298 56.1294 18.2631C56.1027 18.3964 56.0894 18.5431 56.0894 18.7031C56.0894 18.8631 56.0894 19.0098 56.0894 19.1431C56.0894 20.0498 56.1827 20.7431 56.3694 21.2231C56.5294 21.6498 56.7827 21.8631 57.1294 21.8631C57.396 21.8631 57.6494 21.7431 57.8894 21.5031C58.076 21.3164 58.316 21.0231 58.6094 20.6231C58.9027 20.2231 59.1827 19.8098 59.4494 19.3831C59.716 18.9564 59.9027 18.6231 60.0094 18.3831C60.0894 18.2498 60.1694 18.1831 60.2494 18.1831C60.3027 18.1831 60.3427 18.2231 60.3694 18.3031C60.4227 18.3564 60.4227 18.4364 60.3694 18.5431C60.076 19.1831 59.7427 19.8364 59.3694 20.5031C59.0227 21.1431 58.6094 21.7164 58.1294 22.2231C57.9427 22.3831 57.7427 22.5298 57.5294 22.6631C57.316 22.7698 57.0627 22.8231 56.7694 22.8231C56.5294 22.8231 56.2894 22.7831 56.0494 22.7031C55.836 22.5964 55.676 22.4231 55.5694 22.1831C55.3827 21.8364 55.2494 21.4498 55.1694 21.0231C55.0894 20.5964 55.0627 20.1831 55.0894 19.7831C55.036 19.6498 54.996 19.5831 54.9694 19.5831C54.916 19.5831 54.8894 19.6364 54.8894 19.7431C54.756 20.9698 54.3294 21.9431 53.6094 22.6631C52.916 23.3564 52.1694 23.7031 51.3694 23.7031ZM71.4716 26.8631C70.9916 26.8631 70.5116 26.7964 70.0316 26.6631C69.5516 26.5564 69.1382 26.4231 68.7916 26.2631C67.8049 25.8098 66.8849 25.1298 66.0316 24.2231C65.1782 23.3164 64.4849 22.3031 63.9516 21.1831C63.4449 20.0364 63.1916 18.9164 63.1916 17.8231C63.1916 17.2098 63.3249 16.9031 63.5916 16.9031C63.7782 16.9031 63.9249 16.9831 64.0316 17.1431C64.4582 17.8098 65.0582 18.1431 65.8316 18.1431C66.8716 18.1431 67.3916 17.5964 67.3916 16.5031C67.3382 15.9698 67.1916 15.5564 66.9516 15.2631C66.5782 14.8364 66.1382 14.6231 65.6316 14.6231C64.8849 14.6231 64.1116 15.0631 63.3116 15.9431C62.5916 16.7431 61.9382 17.7564 61.3516 18.9831C61.1916 19.3031 61.0049 19.7031 60.7916 20.1831C60.6049 20.6364 60.3916 21.1698 60.1516 21.7831C59.8582 22.5564 59.5916 22.9431 59.3516 22.9431H59.3116C59.1249 22.9431 59.0316 22.7698 59.0316 22.4231C59.0316 22.1831 59.0982 21.6898 59.2316 20.9431C59.3916 20.1964 59.5782 19.3564 59.7916 18.4231C60.0316 17.4631 60.2582 16.5698 60.4716 15.7431C60.6849 14.9164 60.8716 14.3031 61.0316 13.9031C59.6449 13.9564 58.4849 13.5564 57.5516 12.7031C56.6182 11.8231 56.1516 10.6498 56.1516 9.18311C56.1516 7.92978 56.4982 6.83644 57.1916 5.90311C57.8849 4.94311 58.8049 4.46311 59.9516 4.46311C60.7249 4.46311 61.4049 4.66311 61.9916 5.06311C62.6049 5.43644 62.9116 6.08978 62.9116 7.02311C62.9116 7.98311 62.6182 8.70311 62.0316 9.18311C61.4716 9.63644 60.8849 9.86311 60.2716 9.86311C59.8182 9.86311 59.4049 9.72978 59.0316 9.46311C58.6582 9.19644 58.4716 8.80978 58.4716 8.30311C58.4716 8.00978 58.5249 7.74311 58.6316 7.50311C58.7116 7.28978 58.8316 7.18311 58.9916 7.18311C59.1782 7.18311 59.2182 7.31644 59.1116 7.58311C59.0316 7.82311 58.9916 8.02311 58.9916 8.18311C58.9916 8.52978 59.1116 8.79644 59.3516 8.98311C59.5916 9.16978 59.8849 9.26311 60.2316 9.26311C60.6849 9.26311 61.1382 9.08978 61.5916 8.74311C62.0449 8.39644 62.2716 7.84978 62.2716 7.10311C62.2716 6.46311 62.0582 5.95644 61.6316 5.58311C61.2049 5.20978 60.6849 5.02311 60.0716 5.02311C59.2449 5.02311 58.5382 5.38311 57.9516 6.10311C57.3382 6.82311 57.0316 7.80978 57.0316 9.06311C57.0316 9.86311 57.2316 10.5964 57.6316 11.2631C58.0049 11.9031 58.5116 12.4098 59.1516 12.7831C59.7916 13.1298 60.4982 13.2764 61.2716 13.2231C62.3382 10.5298 63.4582 8.35644 64.6316 6.70311C65.9916 4.86311 67.3782 3.94311 68.7916 3.94311C69.8316 3.94311 70.3516 4.47644 70.3516 5.54311C70.3516 6.34311 70.0182 7.27644 69.3516 8.34311C69.0049 8.87644 68.5916 9.39644 68.1116 9.90311C67.6316 10.4098 67.0849 10.9164 66.4716 11.4231C65.7782 11.9831 65.1382 12.4231 64.5516 12.7431C63.9649 13.0364 63.2982 13.3698 62.5516 13.7431C62.2849 14.3298 62.0582 14.9164 61.8716 15.5031C61.7116 16.0898 61.5782 16.7698 61.4716 17.5431C61.7649 17.1698 62.0182 16.8364 62.2316 16.5431C62.4449 16.2498 62.6316 16.0098 62.7916 15.8231C63.0849 15.4231 63.3116 15.1564 63.4716 15.0231C64.2449 14.3031 65.0582 13.9431 65.9116 13.9431C66.3116 13.9431 66.6716 14.0098 66.9916 14.1431C67.3382 14.2764 67.6449 14.5031 67.9116 14.8231C68.3382 15.3298 68.5516 15.9698 68.5516 16.7431C68.5516 17.5164 68.3382 18.1164 67.9116 18.5431C67.4582 19.0764 66.8182 19.3431 65.9916 19.3431C65.7782 19.3431 65.5116 19.2764 65.1916 19.1431C64.8716 18.9831 64.6449 18.8098 64.5116 18.6231C64.6182 19.1564 64.8316 19.8231 65.1516 20.6231C65.4982 21.3964 65.8849 22.1564 66.3116 22.9031C66.7649 23.6498 67.1916 24.2098 67.5916 24.5831C68.1249 25.0631 68.7382 25.4764 69.4316 25.8231C70.1516 26.1964 70.7782 26.3964 71.3116 26.4231C71.6049 26.4231 71.9382 26.3698 72.3116 26.2631C72.6849 26.1564 72.9382 25.8231 73.0716 25.2631C73.0982 25.1564 73.1782 25.0898 73.3116 25.0631C73.4449 25.0364 73.5116 25.1031 73.5116 25.2631C73.5116 25.4764 73.4716 25.6498 73.3916 25.7831C73.3382 25.9431 73.2716 26.0898 73.1916 26.2231C72.8449 26.6498 72.2716 26.8631 71.4716 26.8631ZM62.7516 12.9431C63.4716 12.6764 64.1249 12.3698 64.7116 12.0231C65.2982 11.6498 65.8582 11.2364 66.3916 10.7831C66.7916 10.4364 67.2316 9.99644 67.7116 9.46311C68.1916 8.90311 68.6049 8.32978 68.9516 7.74311C69.2982 7.12978 69.4716 6.55644 69.4716 6.02311C69.4716 5.48978 69.2316 5.22311 68.7516 5.22311C68.5382 5.22311 68.2316 5.31644 67.8316 5.50311C67.1916 5.84978 66.4049 6.66311 65.4716 7.94311C65.0182 8.63644 64.5649 9.38311 64.1116 10.1831C63.6582 10.9831 63.2049 11.9031 62.7516 12.9431ZM76.8697 25.9831C76.7364 25.9831 76.563 25.9031 76.3497 25.7431C75.763 25.1831 75.2964 24.4898 74.9497 23.6631C74.6297 22.8364 74.4964 21.8764 74.5497 20.7831L74.5897 19.9831C74.5897 19.8231 74.603 19.6098 74.6297 19.3431C74.6564 19.0764 74.6964 18.7698 74.7497 18.4231C74.2164 19.7831 73.7364 20.7698 73.3097 21.3831C72.8564 22.0231 72.4297 22.4764 72.0297 22.7431C71.683 23.0098 71.3097 23.1431 70.9097 23.1431C70.2164 23.1431 69.683 22.6231 69.3097 21.5831C69.203 21.2898 69.1497 20.7964 69.1497 20.1031C69.1497 19.5964 69.1764 19.0631 69.2297 18.5031C69.283 17.9164 69.363 17.2898 69.4697 16.6231C69.603 16.0098 69.7097 15.4898 69.7897 15.0631C69.8964 14.6098 70.003 14.2631 70.1097 14.0231C70.243 13.7031 70.5497 13.5431 71.0297 13.5431C71.2164 13.5431 71.4697 13.6098 71.7897 13.7431C72.003 13.9031 72.1097 14.1031 72.1097 14.3431C72.1097 14.4498 72.0697 14.5831 71.9897 14.7431L71.4297 15.8231C71.3497 15.9831 71.2564 16.1564 71.1497 16.3431C71.0697 16.5031 70.9897 16.6764 70.9097 16.8631C70.6164 17.4764 70.403 18.1164 70.2697 18.7831C70.163 19.4498 70.0964 20.1298 70.0697 20.8231C70.0697 21.8098 70.3497 22.3031 70.9097 22.3031C71.363 22.3031 71.8697 21.9964 72.4297 21.3831C72.963 20.7698 73.403 20.0364 73.7497 19.1831C74.363 17.5031 74.6697 16.2231 74.6697 15.3431C74.6697 14.6764 75.0164 14.3431 75.7097 14.3431C76.003 14.3431 76.243 14.4231 76.4297 14.5831C76.643 14.7164 76.7497 14.9164 76.7497 15.1831L76.6697 15.5431C76.3764 16.2631 76.1364 17.0364 75.9497 17.8631C75.7897 18.6898 75.6964 19.5698 75.6697 20.5031C75.643 20.5831 75.6297 20.6764 75.6297 20.7831V21.0631C75.6297 23.1164 76.0564 24.5298 76.9097 25.3031C77.0697 25.4098 77.1497 25.5564 77.1497 25.7431C77.1497 25.9031 77.0564 25.9831 76.8697 25.9831ZM91.505 26.5031C91.345 26.5031 91.2383 26.4631 91.185 26.3831C89.3717 24.2498 88.465 21.2098 88.465 17.2631C88.465 16.6498 88.4783 16.0364 88.505 15.4231C88.5583 14.8098 88.6383 14.1698 88.745 13.5031C89.225 9.42311 90.8517 5.95644 93.625 3.10311C90.985 3.20978 88.8917 3.70311 87.345 4.58311C85.265 5.70311 84.225 7.32978 84.225 9.46311C84.225 10.1298 84.745 10.9031 85.785 11.7831C85.8383 11.8364 85.865 11.8898 85.865 11.9431C85.865 12.0764 85.7983 12.2098 85.665 12.3431C85.505 12.5031 85.3717 12.5831 85.265 12.5831C85.2117 12.5831 85.1583 12.5564 85.105 12.5031C83.8783 11.5164 83.265 10.4498 83.265 9.30311C83.265 7.08978 84.425 5.34311 86.745 4.06311C87.945 3.42311 89.1983 2.98311 90.505 2.74311C91.8117 2.50311 93.145 2.36978 94.505 2.34311C94.905 2.02311 95.3183 1.74311 95.745 1.50311C96.1717 1.23644 96.6117 1.00978 97.065 0.823108L97.225 0.783109C97.2517 0.783109 97.2917 0.783109 97.345 0.783109C97.3983 0.783109 97.4517 0.796442 97.505 0.823108C97.7183 0.823108 97.825 0.836442 97.825 0.86311C97.825 0.916443 97.7583 0.983109 97.625 1.06311C97.1717 1.35644 96.6383 1.79644 96.025 2.38311C99.0383 2.59644 101.238 3.32978 102.625 4.58311C103.878 5.67644 104.505 7.06311 104.505 8.74311C104.505 10.8498 103.652 12.7431 101.945 14.4231C100.132 16.2364 97.9583 17.1431 95.425 17.1431C94.385 17.1431 93.5583 16.8231 92.945 16.1831C92.385 15.6231 92.105 14.9298 92.105 14.1031C92.105 13.3564 92.345 12.7298 92.825 12.2231C93.3583 11.6631 94.0917 11.3831 95.025 11.3831C95.3983 11.3831 95.7183 11.5564 95.985 11.9031C96.2517 12.2498 96.385 12.6098 96.385 12.9831C96.385 13.1431 96.3717 13.2364 96.345 13.2631C96.2917 13.3164 96.2517 13.3431 96.225 13.3431C96.1983 13.3431 96.1583 13.2764 96.105 13.1431C96.0517 12.8498 95.905 12.5964 95.665 12.3831C95.4783 12.1164 95.265 11.9831 95.025 11.9831C94.3317 11.9831 93.7583 12.2231 93.305 12.7031C92.9317 13.1564 92.745 13.6631 92.745 14.2231C92.745 14.8631 92.9583 15.3964 93.385 15.8231C93.9183 16.3031 94.5983 16.5431 95.425 16.5431C97.585 16.5431 99.385 15.8231 100.825 14.3831C102.132 13.0764 102.785 11.5031 102.785 9.66311C102.785 8.00978 102.198 6.59644 101.025 5.42311C99.665 4.08978 97.745 3.32978 95.265 3.14311C92.3583 6.28978 90.6517 9.76978 90.145 13.5831C89.985 14.7298 89.905 15.8364 89.905 16.9031C89.905 19.0898 90.1983 21.0231 90.785 22.7031C91.2117 24.0631 91.745 25.1298 92.385 25.9031L92.425 25.9831V26.0231C92.425 26.1564 92.3317 26.2631 92.145 26.3431C91.9583 26.4498 91.745 26.5031 91.505 26.5031ZM108.501 22.6631C108.447 22.6631 108.367 22.6631 108.261 22.6631C108.181 22.6364 108.087 22.6098 107.981 22.5831C106.914 22.3431 106.381 21.4764 106.381 19.9831C106.381 19.8498 106.381 19.7164 106.381 19.5831C106.407 19.4231 106.434 19.2764 106.461 19.1431C106.541 18.6364 106.647 18.1298 106.781 17.6231C106.914 17.0898 107.074 16.5564 107.261 16.0231V15.9431C107.261 15.7031 107.141 15.5831 106.901 15.5831C106.767 15.5831 106.594 15.6364 106.381 15.7431C106.061 15.8231 105.794 15.8631 105.581 15.8631H105.341C105.261 15.8631 105.141 15.8364 104.981 15.7831C104.927 16.2898 104.754 16.9431 104.461 17.7431C104.194 18.5164 103.874 19.1698 103.501 19.7031C103.447 19.8098 103.354 19.8631 103.221 19.8631C103.034 19.8631 103.021 19.7298 103.181 19.4631C103.634 18.7431 103.954 18.0364 104.141 17.3431C104.354 16.6231 104.474 16.1031 104.501 15.7831C103.967 15.4098 103.581 14.6898 103.341 13.6231C103.314 13.5698 103.301 13.4764 103.301 13.3431V13.1031C103.301 12.3564 103.527 11.9831 103.981 11.9831C104.327 11.9831 104.594 12.2364 104.781 12.7431C104.861 12.9564 104.914 13.2498 104.941 13.6231C104.994 13.9698 105.047 14.4098 105.101 14.9431C105.207 15.1298 105.407 15.2231 105.701 15.2231C106.421 15.2231 107.461 14.7031 108.821 13.6631C109.114 13.4498 109.394 13.3431 109.661 13.3431C109.981 13.3431 110.141 13.4898 110.141 13.7831C110.141 13.8098 110.127 13.8631 110.101 13.9431C110.101 14.0231 110.087 14.1164 110.061 14.2231L108.941 16.1831C108.541 16.8764 108.247 17.5164 108.061 18.1031C107.901 18.6898 107.821 19.2098 107.821 19.6631C107.821 20.5698 108.087 21.1431 108.621 21.3831C108.727 21.4098 108.821 21.4364 108.901 21.4631C108.981 21.4631 109.047 21.4631 109.101 21.4631C109.447 21.4631 109.794 21.3431 110.141 21.1031C110.487 20.8364 110.794 20.4231 111.061 19.8631L111.501 18.9831L111.981 18.1431C112.007 18.0364 112.074 17.9831 112.181 17.9831C112.234 17.9831 112.287 18.0231 112.341 18.1031C112.394 18.1564 112.407 18.2098 112.381 18.2631C112.301 18.4231 112.167 18.6898 111.981 19.0631C111.794 19.4364 111.607 19.8098 111.421 20.1831C111.261 20.5298 111.141 20.7564 111.061 20.8631C110.261 22.0631 109.407 22.6631 108.501 22.6631ZM115.466 22.3031C114.426 22.3031 113.546 22.0231 112.826 21.4631C112.052 20.8498 111.666 20.0764 111.666 19.1431C111.666 18.2631 111.852 17.5164 112.226 16.9031C112.572 16.3431 113.092 15.9564 113.786 15.7431C113.679 15.4498 113.626 15.1964 113.626 14.9831C113.626 14.5031 113.812 14.0364 114.186 13.5831C114.586 13.1564 115.079 12.8631 115.666 12.7031C115.799 12.6764 115.932 12.6631 116.066 12.6631C116.199 12.6364 116.332 12.6231 116.466 12.6231C117.532 12.6231 118.466 13.1031 119.266 14.0631C120.039 14.9964 120.426 16.0498 120.426 17.2231C120.426 18.6098 119.932 19.8098 118.946 20.8231C117.986 21.8098 116.826 22.3031 115.466 22.3031ZM115.466 21.7031C116.506 21.6764 117.399 21.2231 118.146 20.3431C118.866 19.4898 119.226 18.5164 119.226 17.4231C119.226 16.4631 118.999 15.6498 118.546 14.9831C118.039 14.2364 117.372 13.8631 116.546 13.8631C115.959 13.8631 115.466 14.0631 115.066 14.4631C114.639 14.8898 114.426 15.4631 114.426 16.1831C114.426 16.5564 114.532 16.8898 114.746 17.1831C114.986 17.5831 115.306 17.7831 115.706 17.7831H115.786C116.079 17.7831 116.399 17.6231 116.746 17.3031L116.826 17.2631L116.866 17.3031C116.866 17.3831 116.839 17.4498 116.786 17.5031C116.386 18.0364 115.946 18.3031 115.466 18.3031C114.692 18.3031 114.066 17.7564 113.586 16.6631C112.972 17.0631 112.666 17.7164 112.666 18.6231C112.666 19.4231 112.892 20.1164 113.346 20.7031C113.852 21.3698 114.559 21.7031 115.466 21.7031ZM122.413 9.98311C122.093 9.98311 121.813 9.87644 121.573 9.66311C121.36 9.42311 121.253 9.15644 121.253 8.86311C121.253 8.54311 121.36 8.27644 121.573 8.06311C121.813 7.84978 122.093 7.74311 122.413 7.74311C122.707 7.74311 122.96 7.84978 123.173 8.06311C123.413 8.27644 123.533 8.54311 123.533 8.86311C123.533 9.15644 123.413 9.42311 123.173 9.66311C122.96 9.87644 122.707 9.98311 122.413 9.98311ZM116.133 30.3831C115.173 30.3831 114.453 30.1698 113.973 29.7431C113.493 29.3431 113.253 28.8631 113.253 28.3031C113.253 27.4231 113.76 26.6764 114.773 26.0631C115.36 25.6898 116.013 25.3564 116.733 25.0631C117.453 24.7964 118.24 24.5698 119.093 24.3831L121.213 23.9031C121.907 23.7964 122.64 23.6364 123.413 23.4231C123.653 22.2498 123.773 21.0364 123.773 19.7831C123.773 17.4631 123.453 15.1298 122.813 12.7831V12.7431C122.813 12.6364 122.947 12.5298 123.213 12.4231C123.48 12.2898 123.76 12.2231 124.053 12.2231C124.213 12.2231 124.307 12.2364 124.333 12.2631L124.453 12.3431C124.987 14.4764 125.253 16.3831 125.253 18.0631C125.253 18.9431 125.213 19.7831 125.133 20.5831C125.08 21.3831 124.973 22.1698 124.813 22.9431C125.987 22.4364 126.933 21.8764 127.653 21.2631C128.4 20.6231 129.08 19.6764 129.693 18.4231C129.8 18.2364 129.893 18.1431 129.973 18.1431C130.027 18.1431 130.067 18.1964 130.093 18.3031C130.147 18.3831 130.147 18.4631 130.093 18.5431C129.453 19.8764 128.733 20.9431 127.933 21.7431C127.133 22.5164 126.04 23.1831 124.653 23.7431C123.427 28.1698 120.587 30.3831 116.133 30.3831ZM115.653 29.7031C117.573 29.7031 119.173 29.2764 120.453 28.4231C121.733 27.5964 122.667 26.1698 123.253 24.1431L120.973 24.6631C120.227 24.7964 119.52 24.9564 118.853 25.1431C118.48 25.2231 117.96 25.3831 117.293 25.6231C116.6 25.8898 115.973 26.2231 115.413 26.6231C114.987 26.9431 114.667 27.2631 114.453 27.5831C114.24 27.9298 114.133 28.2498 114.133 28.5431C114.133 28.8898 114.267 29.1698 114.533 29.3831C114.773 29.5964 115.147 29.7031 115.653 29.7031ZM133.318 23.2231C131.931 23.2231 130.865 22.7564 130.118 21.8231C129.398 20.8631 129.038 19.6764 129.038 18.2631C129.038 16.6098 129.465 15.2364 130.318 14.1431C130.931 13.2898 131.731 12.7031 132.718 12.3831C132.958 12.3298 133.171 12.2898 133.358 12.2631C133.571 12.2098 133.771 12.1831 133.958 12.1831C134.678 12.1831 135.225 12.3831 135.598 12.7831C135.998 13.1564 136.198 13.6231 136.198 14.1831C136.198 14.8498 135.918 15.5298 135.358 16.2231C135.091 16.5431 134.731 16.7964 134.278 16.9831C133.825 17.1431 133.371 17.2231 132.918 17.2231C132.491 17.2231 132.078 17.1298 131.678 16.9431C131.278 16.7564 130.971 16.4764 130.758 16.1031C130.598 16.3698 130.491 16.6764 130.438 17.0231C130.385 17.3431 130.358 17.7298 130.358 18.1831C130.358 19.2764 130.598 20.2631 131.078 21.1431C131.558 22.0231 132.371 22.4631 133.518 22.4631C134.505 22.4631 135.265 22.1698 135.798 21.5831C136.331 20.9698 136.598 20.3964 136.598 19.8631C136.598 19.4364 136.438 19.1431 136.118 18.9831C135.985 18.9031 135.918 18.8098 135.918 18.7031C135.918 18.5431 135.998 18.4631 136.158 18.4631C136.425 18.4631 136.665 18.6098 136.878 18.9031C137.118 19.1698 137.238 19.5164 137.238 19.9431C137.238 21.0098 136.838 21.8231 136.038 22.3831C135.238 22.9431 134.331 23.2231 133.318 23.2231ZM132.998 16.3431C133.291 16.3431 133.585 16.3031 133.878 16.2231C134.198 16.1164 134.451 15.9431 134.638 15.7031C135.011 15.2498 135.198 14.7831 135.198 14.3031C135.198 13.9298 135.105 13.6231 134.918 13.3831C134.731 13.1431 134.451 13.0231 134.078 13.0231H133.838C133.145 13.0231 132.585 13.2364 132.158 13.6631C131.678 14.0631 131.331 14.5831 131.118 15.2231C131.118 15.5431 131.305 15.8098 131.678 16.0231C132.078 16.2364 132.518 16.3431 132.998 16.3431ZM144.346 23.0231C142.64 23.0231 141.253 22.4364 140.186 21.2631C139.12 20.0898 138.586 18.6098 138.586 16.8231C138.586 15.3298 139.093 14.1164 140.106 13.1831C141.12 12.2231 142.373 11.7431 143.866 11.7431C144.96 11.7431 145.933 12.0364 146.786 12.6231C147.64 13.2098 148.066 14.0764 148.066 15.2231C148.066 15.8898 147.84 16.4898 147.386 17.0231C146.96 17.5564 146.213 17.8231 145.146 17.8231C144.24 17.8231 143.56 17.5698 143.106 17.0631C142.68 16.5298 142.466 15.9831 142.466 15.4231C142.466 14.9698 142.6 14.5698 142.866 14.2231C143.16 13.8764 143.573 13.7031 144.106 13.7031C144.213 13.7031 144.32 13.7164 144.426 13.7431C144.533 13.7431 144.64 13.7564 144.746 13.7831C144.96 13.8631 145.066 13.9831 145.066 14.1431C145.066 14.3298 144.933 14.3831 144.666 14.3031C144.266 14.1964 143.96 14.2764 143.746 14.5431C143.533 14.7831 143.426 15.0898 143.426 15.4631C143.426 15.8898 143.573 16.3164 143.866 16.7431C144.186 17.1698 144.64 17.3831 145.226 17.3831C145.92 17.3831 146.44 17.1831 146.786 16.7831C147.16 16.3564 147.346 15.8631 147.346 15.3031C147.346 14.6098 147.053 13.9298 146.466 13.2631C145.906 12.5964 145.08 12.2631 143.986 12.2631C142.733 12.2631 141.8 12.7164 141.186 13.6231C140.573 14.5298 140.266 15.5964 140.266 16.8231C140.266 17.8098 140.413 18.7164 140.706 19.5431C141.026 20.3431 141.48 20.9964 142.066 21.5031C142.653 22.0098 143.333 22.2631 144.106 22.2631C144.96 22.2631 145.64 22.0631 146.146 21.6631C146.68 21.2364 146.946 20.7431 146.946 20.1831C146.946 19.9164 147.066 19.7831 147.306 19.7831C147.52 19.7831 147.626 19.9298 147.626 20.2231C147.626 21.1564 147.28 21.8498 146.586 22.3031C145.92 22.7564 145.173 22.9964 144.346 23.0231ZM153.748 23.9431C152.921 23.9431 152.161 23.6364 151.468 23.0231C150.401 22.0631 149.868 20.5564 149.868 18.5031C149.868 17.8898 149.934 17.1564 150.068 16.3031C150.201 15.4498 150.414 14.4364 150.708 13.2631C150.068 13.2631 149.428 13.2231 148.788 13.1431C148.174 13.0364 147.628 12.8498 147.148 12.5831C146.828 12.3698 146.668 12.1164 146.668 11.8231C146.668 11.4764 146.828 11.3031 147.148 11.3031C147.361 11.3031 147.561 11.3831 147.748 11.5431C148.574 12.2364 149.601 12.6231 150.828 12.7031C150.881 12.5164 151.094 11.9298 151.468 10.9431C151.841 9.95644 152.401 8.56978 153.148 6.78311C153.228 6.56978 153.374 6.46311 153.588 6.46311C153.801 6.46311 154.001 6.54311 154.188 6.70311C154.374 6.88978 154.468 7.06311 154.468 7.22311L153.668 9.26311C153.054 10.7831 152.654 11.8898 152.468 12.5831L153.628 12.4631C153.788 12.4364 153.961 12.4231 154.148 12.4231C154.361 12.3964 154.574 12.3564 154.788 12.3031C155.081 12.1964 155.308 12.1164 155.468 12.0631C155.654 11.9831 155.788 11.9298 155.868 11.9031C155.974 11.8498 156.068 11.8231 156.148 11.8231C156.281 11.8231 156.348 11.8631 156.348 11.9431C156.348 11.9964 156.308 12.0631 156.228 12.1431C155.668 12.4364 155.068 12.6898 154.428 12.9031C153.788 13.0898 153.081 13.2098 152.308 13.2631C152.201 13.5564 152.081 13.9964 151.948 14.5831C151.814 15.1698 151.694 15.7964 151.588 16.4631C151.481 17.1298 151.428 17.7431 151.428 18.3031C151.428 21.3964 152.334 22.9431 154.148 22.9431C154.628 22.9431 155.028 22.7831 155.348 22.4631C155.614 22.1964 155.748 21.8631 155.748 21.4631V21.1031C155.748 20.8898 155.761 20.7698 155.788 20.7431C155.814 20.7164 155.854 20.7031 155.908 20.7031C156.014 20.7031 156.081 20.7564 156.108 20.8631C156.161 21.0231 156.188 21.2231 156.188 21.4631C156.188 22.2364 155.948 22.8498 155.468 23.3031C155.041 23.7298 154.468 23.9431 153.748 23.9431Z" fill="#0D0C41"/>
</svg>
